<svg xmlns="http://www.w3.org/2000/svg" width="266.3204" height="67.9125" viewBox="0 0 266.3204 67.9125">
  <g id="Camada_2" data-name="Camada 2">
    <g id="Camada_1-2" data-name="Camada 1">
      <g>
        <g>
          <g>
            <path d="M37.0432,44.6177l8.4575,21.98c.3051.81-.1,1.315-.81,1.315H35.4427a1.3093,1.3093,0,0,1-1.3178-.91l-2.8735-7.4741Z" fill="#e8e9f4"/>
            <path d="M28.2082,23.4147l8.5569-22.1c.3054-.81-.1-1.315-.81-1.315H26.7072a1.31,1.31,0,0,0-1.3178.91L22.4253,8.5144Z" fill="#e8e9f4"/>
            <path d="M22.9993,36.9738l-11.5208,30.02a1.3093,1.3093,0,0,1-1.3178.91H.9129c-.71,0-1.1154-.5049-.81-1.315L17.2084,22.022Z" fill="#e8e9f4"/>
          </g>
          <path d="M54.3789,1.315c.3051-.81-.1-1.315-.81-1.315H44.321a1.3093,1.3093,0,0,0-1.3178.91L31.5365,30.3017,20.129.9147a1.3093,1.3093,0,0,0-1.3178-.91H9.5635c-.71,0-1.1154.5049-.81,1.315L25.73,45.1866h0L17.4926,66.5939c-.3051.81.1,1.315.81,1.315h9.2477a1.3093,1.3093,0,0,0,1.3178-.91Z" fill="#eeeef8"/>
        </g>
        <g>
          <g>
            <path d="M89.0979,23.96,76.6388,55.8789a.7327.7327,0,0,1-.6537.4195H70.7123c-.3735,0-.5136-.2787-.3735-.6062l3.9663-10.22L65.8589,23.96c-.14-.3735.0467-.6062.3269-.6062H71.692a.5486.5486,0,0,1,.56.4194l4.946,14.2333,5.6-14.2333a.6006.6006,0,0,1,.6062-.4194h5.32C89.0979,23.3542,89.2847,23.5869,89.0979,23.96Z" fill="#eeeef8"/>
            <path d="M107.1727,42.9782a9.2969,9.2969,0,0,1-7.2151,3.1c-4.8566,0-8.0943-3.793-8.0943-9.8983l-.0463-12.256a.4758.4758,0,0,1,.4628-.5083H97.414a.4749.4749,0,0,1,.462.5083V34.9309c0,3.7,1.5263,5.4574,4.3013,5.4574,2.22,0,4.3938-1.6644,4.6252-6.1508V23.9235c0-.3232.1388-.5083.4627-.5083h5.088a.437.437,0,0,1,.462.4627V45.06a.437.437,0,0,1-.462.4627h-4.117a.5991.5991,0,0,1-.6008-.4627Z" fill="#eeeef8"/>
            <path d="M116.7854,24.3454a.4775.4775,0,0,1,.511-.4646h4.0864a.6018.6018,0,0,1,.604.4646l.51,2.1357a7.5943,7.5943,0,0,1,6.6409-3.1579c4.9226,0,8.3585,3.8083,8.3585,9.9368V45.6126a.4388.4388,0,0,1-.4639.4646h-5.1084a.4372.4372,0,0,1-.4646-.4646V34.5137c0-3.3423-1.7641-5.1078-4.1328-5.1078-2.2287.0472-4.2722,1.8112-4.458,5.8511V45.6126a.4582.4582,0,0,1-.4639.4188h-5.1085c-.2787,0-.4646-.14-.4646-.4188Z" fill="#eeeef8"/>
            <path d="M157.9946,26.6317l.8616-2.3108c.09-.3628.2714-.4535.5435-.4535H162.89a.4279.4279,0,0,1,.4528.4535l.0453,20.3517c0,7.0258-4.6682,11.6487-11.5586,11.6487a17.4,17.4,0,0,1-8.8391-2.3108.5173.5173,0,0,1-.2261-.7256l2.13-4.3522a.4772.4772,0,0,1,.4081-.226.4149.4149,0,0,1,.2268.0446,14.7845,14.7845,0,0,0,5.9381,1.6773c3.9433-.0447,5.9827-2.3568,5.9827-5.9834V43.54a7.5357,7.5357,0,0,1-5.802,2.4921c-6.7991,0-11.1052-4.5322-11.1052-11.2858s4.3515-11.378,10.9245-11.378A7.5808,7.5808,0,0,1,157.9946,26.6317Zm-6.21,13.4627c3.3545,0,5.6206-2.1754,5.6206-5.3946,0-3.3084-2.2207-5.4392-5.6206-5.4392A5.0918,5.0918,0,0,0,146.4359,34.7,5.08,5.08,0,0,0,151.7844,40.0944Z" fill="#eeeef8"/>
            <path d="M179.0319,42.9967l1.299-2.3092a.3625.3625,0,0,1,.337-.24.6737.6737,0,0,1,.2888.0963,11.5053,11.5053,0,0,0,6.1107,1.8278c2.6943,0,4.4265-1.01,4.4265-2.5981,0-1.78-1.78-2.4543-5.1967-3.3682-4.8117-1.299-6.9283-3.1268-7.0246-6.5439-.0963-3.9444,3.3682-6.5439,8.1791-6.495a11.5924,11.5924,0,0,1,6.6884,2.1166.57.57,0,0,1,.1444.7228L193.13,28.5625a.49.49,0,0,1-.3851.2414.6947.6947,0,0,1-.2889-.0962,9.2151,9.2151,0,0,0-5.2441-1.5879c-2.4543,0-4.0422,1.0576-4.0422,2.4529,0,1.733,1.3953,2.4054,4.86,3.3682,4.8117,1.2516,7.2653,2.84,7.41,6.4965.0962,4.0407-3.32,6.6876-8.42,6.6387a13.3314,13.3314,0,0,1-7.891-2.3566A.5147.5147,0,0,1,179.0319,42.9967Z" fill="#eeeef8"/>
            <path d="M202.61,12.1446a2.6848,2.6848,0,0,1,2.8586,2.8579,2.766,2.766,0,0,1-2.8586,2.96,2.8178,2.8178,0,0,1-2.96-2.96A2.7384,2.7384,0,0,1,202.61,12.1446Zm2.0056,33.4018a.4738.4738,0,0,1-.501.5017h-3.11a.4632.4632,0,0,1-.4508-.5017V23.88a.4632.4632,0,0,1,.4508-.5018h3.11c.3,0,.4508.2007.4508.5018Z" fill="#eeeef8"/>
            <path d="M215.5872,45.5776a.4571.4571,0,0,1-.4959.4705h-3.0791a.4446.4446,0,0,1-.4463-.4705V12.56a.4434.4434,0,0,1,.4463-.4691h3.0791a.4561.4561,0,0,1,.4959.4691Z" fill="#eeeef8"/>
            <path d="M233.2517,45.5973a.7086.7086,0,0,1-.7017.4508h-3.36a.7561.7561,0,0,1-.7025-.4508L219.61,24.0315c-.15-.3521,0-.6531.4014-.6531h3.51a.5882.5882,0,0,1,.552.4014l6.8211,17.5531,6.771-17.5022a.7223.7223,0,0,1,.6014-.4523l3.4607.0509c.4516,0,.6022.25.4516.6022Z" fill="#eeeef8"/>
            <path d="M263.092,24.2565a.5173.5173,0,0,1,.53-.4346h2.2642a.384.384,0,0,1,.4339.4346V45.1191a.4324.4324,0,0,1-.4821.4821h-2.2642a.614.614,0,0,1-.53-.4331l-.5785-3.2292a9.2412,9.2412,0,0,1-8.1426,4.1444c-6.5532,0-10.9861-4.6264-10.9861-11.371,0-6.7461,4.4329-11.3235,10.9861-11.3725a9.2412,9.2412,0,0,1,8.1426,4.1444ZM254.66,42.2282a7.273,7.273,0,0,0,7.6612-7.5159,7.3008,7.3008,0,0,0-7.6612-7.5174,7.0948,7.0948,0,0,0-7.4692,7.5174A7.1192,7.1192,0,0,0,254.66,42.2282Z" fill="#eeeef8"/>
          </g>
          <circle cx="170.8879" cy="42.9069" r="2.6221" fill="#eeeef8"/>
        </g>
      </g>
    </g>
  </g>
</svg>
